# xmcd CD database file
#
# Track frame offsets:
#	150
#	15666
#	39436
#	56008
#	77244
#	106605
#	131052
#	154585
#	174703
#	207089
#
# Disc length: 2958 seconds
#
# Revision: 0
# Processed by: cddbd v1.5.2PL0 Copyright (c) Steve Scherf et al.
# Submitted via: CDex 1.51
#
DISCID=790b8c0a
DTITLE=Stephan Micus - On The Wing
DYEAR=2006
DGENRE=New Age
TTITLE0=On The Wing
TTITLE1=Winterlight
TTITLE2=Gazelle
TTITLE3=Blossoms In The Wind
TTITLE4=The Bride
TTITLE5=Ancient Trees
TTITLE6=In The Dancing Snow
TTITLE7=The Gate
TTITLE8=Turqoise Fields
TTITLE9=Morning Sky
EXTD=YEAR: 2006
EXTT0=
EXTT1=
EXTT2=
EXTT3=
EXTT4=
EXTT5=
EXTT6=
EXTT7=
EXTT8=
EXTT9=
PLAYORDER=
